<?xml version="1.0" standalone="no"?>
<!DOCTYPE svg PUBLIC "-//W3C//DTD SVG 20010904//EN"
 "http://www.w3.org/TR/2001/REC-SVG-20010904/DTD/svg10.dtd">
<svg version="1.0" xmlns="http://www.w3.org/2000/svg"
 width="617.000000pt" height="530.000000pt" viewBox="0 0 617.000000 530.000000"
 preserveAspectRatio="xMidYMid meet">

<g transform="translate(0.000000,530.000000) scale(0.100000,-0.100000)"
fill="#000000" stroke="none">
<path d="M2610 5275 c-68 -30 -77 -30 -85 -5 -3 11 -10 20 -14 20 -4 0 -47
-54 -96 -121 -48 -66 -94 -123 -101 -126 -20 -7 -169 -262 -184 -315 -12 -39
-19 -48 -37 -48 -14 0 -23 6 -23 15 0 8 -9 15 -20 15 -11 0 -20 -7 -20 -15 0
-10 -10 -15 -30 -15 -30 0 -30 -1 -30 -54 0 -52 1 -55 28 -58 l27 -3 0 -2130
0 -2130 -27 -3 c-27 -3 -28 -6 -28 -58 0 -51 1 -54 25 -54 14 0 28 -7 31 -15
8 -20 44 -20 44 0 0 22 50 20 50 -2 1 -10 36 -45 82 -80 65 -51 89 -63 118
-63 20 0 42 -6 48 -12 18 -18 1574 -18 1580 0 2 7 22 12 45 12 37 0 53 9 124
66 l83 66 0 2268 0 2268 -69 128 c-38 71 -84 147 -104 169 -19 22 -67 87 -107
145 -40 58 -74 107 -76 109 -1 1 -15 -1 -31 -6 -20 -7 -40 -6 -67 4 -48 16
-264 30 -686 43 -405 12 -384 13 -450 -15z m-490 -2840 l0 -2135 -25 0 -25 0
0 2135 0 2135 25 0 25 0 0 -2135z m620 1062 c192 -108 545 -320 700 -421 69
-45 171 -111 228 -146 56 -35 102 -66 102 -70 0 -4 -6 -12 -13 -18 -9 -8 -26
-3 -62 20 -125 78 -305 177 -358 197 -32 11 -90 42 -128 66 -38 25 -77 49 -86
53 -17 7 -103 61 -113 72 -3 3 -22 13 -42 24 -20 10 -61 40 -90 66 -29 26
-117 89 -195 139 -79 51 -140 97 -137 102 9 15 40 2 194 -84z m69 -211 c9 -11
5 -68 -19 -248 -49 -374 -91 -631 -107 -648 -12 -13 -13 -10 -8 25 3 22 12
110 20 195 15 148 69 589 81 658 7 35 15 40 33 18z"/>
</g>
</svg>
